SplineFontDB: 3.0
FontName: Jones-it-Light
FullName: Jones* Light
FamilyName: Jones* Light
Weight: Light
Copyright: 
UComments: "2016-1-29: Created with FontForge (http://fontforge.org)"
Version: 002.000
ItalicAngle: 0
UnderlinePosition: -150
UnderlineWidth: 50
Ascent: 784
Descent: 216
InvalidEm: 0
LayerCount: 2
Layer: 0 0 "Back" 1
Layer: 1 0 "Fore" 0
XUID: [1021 31 -699969567 4970488]
FSType: 0
OS2Version: 2
OS2_WeightWidthSlopeOnly: 0
OS2_UseTypoMetrics: 0
CreationTime: 1454127431
ModificationTime: 1454887488
PfmFamily: 17
TTFWeight: 300
TTFWidth: 5
LineGap: 0
VLineGap: 0
OS2TypoAscent: 784
OS2TypoAOffset: 0
OS2TypoDescent: -216
OS2TypoDOffset: 0
OS2TypoLinegap: 200
OS2WinAscent: 850
OS2WinAOffset: 0
OS2WinDescent: 300
OS2WinDOffset: 0
HheadAscent: 850
HheadAOffset: 0
HheadDescent: -300
HheadDOffset: 0
OS2SubXSize: 650
OS2SubYSize: 600
OS2SubXOff: 0
OS2SubYOff: 75
OS2SupXSize: 650
OS2SupYSize: 600
OS2SupXOff: 0
OS2SupYOff: 350
OS2StrikeYSize: 50
OS2StrikeYPos: 314
OS2CapHeight: 700
OS2XHeight: 520
OS2Vendor: 'PfEd'
Lookup: 5 0 0 "lig" { "lig-1"  } ['calt' ('DFLT' <'dflt' > 'grek' <'dflt' > 'latn' <'dflt' > ) ]
Lookup: 1 0 0 "fi" { "fi-1"  } ['ss01' ('DFLT' <'dflt' > 'grek' <'dflt' > 'latn' <'dflt' > ) ]
Lookup: 258 0 0 "kern" { "kerning" [150,0,2] } ['kern' ('DFLT' <'dflt' > 'grek' <'dflt' > 'latn' <'dflt' > ) ]
MarkAttachClasses: 1
DEI: 91125
KernClass2: 13 10 "kerning"
 3 A L
 5 D O Q
 3 F P
 3 K X
 3 V W
 13 b e h m n o p
 15 a c g q r s u z
 14 d f i j l t fi
 3 k x
 3 v w
 3 R B
 3 T Y
 1 A
 7 C G O Q
 3 T Y
 3 V W
 15 a m n p r s u z
 11 c d e g o q
 18 b f h i j k l t fi
 5 v w y
 1 x

StartChar: E
Encoding: 69 69 0
Width: 670
VWidth: 0
Flags: HMW
AnchorPoint: "ced" 495 0 basechar 0
AnchorPoint: "dot" 365 760 basechar 0
LayerCount: 2
Fore
SplineSet
100 393 m 1
 560 393 l 1
 560 323 l 1
 100 323 l 1
 100 393 l 1
100 700 m 1
 610 700 l 1
 610 630 l 1
 100 630 l 1
 100 700 l 1
100 70 m 5
 610 70 l 5
 610 0 l 1
 100 0 l 1
 100 70 l 5
100 700 m 1
 170 700 l 1
 170 0 l 1
 100 0 l 1
 100 700 l 1
EndSplineSet
EndChar

StartChar: I
Encoding: 73 73 1
Width: 300
VWidth: 0
Flags: HMW
AnchorPoint: "ced" 155 0 basechar 0
AnchorPoint: "dot" 150 760 basechar 0
LayerCount: 2
Fore
SplineSet
115 700 m 1
 185 700 l 5
 185 0 l 5
 115 0 l 1
 115 700 l 1
EndSplineSet
EndChar

StartChar: F
Encoding: 70 70 2
Width: 665
VWidth: 0
Flags: HMW
AnchorPoint: "ced" 145 0 basechar 0
AnchorPoint: "dot" 365 760 basechar 0
LayerCount: 2
Fore
SplineSet
100 373 m 1
 560 373 l 1
 560 303 l 1
 100 303 l 1
 100 373 l 1
100 700 m 1
 610 700 l 1
 610 630 l 1
 100 630 l 1
 100 700 l 1
100 700 m 1
 180 700 l 5
 180 0 l 5
 100 0 l 1
 100 700 l 1
EndSplineSet
EndChar

StartChar: H
Encoding: 72 72 3
Width: 765
VWidth: 0
Flags: HMW
AnchorPoint: "ced" 625 0 basechar 0
AnchorPoint: "dot" 380 760 basechar 0
LayerCount: 2
Fore
SplineSet
595 700 m 1
 665 700 l 1
 665 0 l 1
 595 0 l 1
 595 700 l 1
100 393 m 5
 610 393 l 5
 610 323 l 1
 100 323 l 1
 100 393 l 5
100 700 m 1
 170 700 l 1
 170 0 l 1
 100 0 l 1
 100 700 l 1
EndSplineSet
EndChar

StartChar: L
Encoding: 76 76 4
Width: 655
VWidth: 0
Flags: HMW
AnchorPoint: "ced" 365 0 basechar 0
AnchorPoint: "dot" 385 760 basechar 0
LayerCount: 2
Fore
SplineSet
100 70 m 5
 610 70 l 5
 610 0 l 1
 100 0 l 1
 100 70 l 5
100 700 m 1
 170 700 l 1
 170 0 l 1
 100 0 l 1
 100 700 l 1
EndSplineSet
EndChar

StartChar: T
Encoding: 84 84 5
Width: 690
VWidth: 0
Flags: HMW
AnchorPoint: "ced" 347 0 basechar 0
AnchorPoint: "dot" 345 760 basechar 0
LayerCount: 2
Fore
SplineSet
50 700 m 1
 640 700 l 1
 640 630 l 1
 50 630 l 1
 50 700 l 1
310 700 m 1
 380 700 l 1
 380 0 l 1
 310 0 l 1
 310 700 l 1
EndSplineSet
EndChar

StartChar: O
Encoding: 79 79 7
Width: 850
VWidth: 0
Flags: HMW
AnchorPoint: "ced" 425 0 basechar 0
AnchorPoint: "dot" 425 760 basechar 0
LayerCount: 2
Fore
SplineSet
140 350 m 4
 140 190 265 60 425 60 c 4
 585 60 710 190 710 350 c 4
 710 510 585 640 425 640 c 4
 265 640 140 510 140 350 c 4
70 350 m 4
 70 549 230 710 425 710 c 4
 620 710 780 549 780 350 c 4
 780 151 620 -10 425 -10 c 4
 230 -10 70 151 70 350 c 4
EndSplineSet
EndChar

StartChar: C
Encoding: 67 67 8
Width: 732
VWidth: 0
Flags: HMW
AnchorPoint: "ced" 425 0 basechar 0
AnchorPoint: "dot" 425 760 basechar 0
LayerCount: 2
Fore
SplineSet
140 350 m 0
 140 184 264 60 425 60 c 0
 513 60 591 100 644 161 c 1
 692 113 l 1
 627 38 531 -10 425 -10 c 0
 230 -10 70 151 70 350 c 0
 70 549 230 710 425 710 c 0
 531 710 627 662 692 587 c 1
 644 539 l 5
 591 600 513 640 425 640 c 0
 264 640 140 516 140 350 c 0
EndSplineSet
EndChar

StartChar: A
Encoding: 65 65 9
Width: 800
VWidth: 0
InSpiro: 1
Flags: HMW
AnchorPoint: "ced" 712 0 basechar 0
AnchorPoint: "ring" 400 700 basechar 0
AnchorPoint: "dot" 400 760 basechar 0
LayerCount: 2
Fore
SplineSet
370 700 m 1
 430 700 l 1
 420 690 l 1
 370 690 l 1
 370 700 l 1
  Spiro
    370 700 v
    430 700 v
    420 690 v
    370 690 v
    0 0 z
  EndSpiro
194 260 m 1
 606 260 l 1
 606 190 l 1
 194 190 l 1
 194 260 l 1
  Spiro
    194 260 v
    606 260 v
    606 190 v
    194 190 v
    0 0 z
  EndSpiro
681 0 m 1
 366 690 l 1
 430 700 l 1
 760 0 l 1
 681 0 l 1
  Spiro
    681 0 v
    366 690 v
    430 700 v
    760 0 v
    0 0 z
  EndSpiro
370 700 m 1
 434 690 l 1
 119 0 l 1
 40 0 l 1
 370 700 l 1
  Spiro
    370 700 v
    434 690 v
    119 0 v
    40 0 v
    0 0 z
  EndSpiro
EndSplineSet
EndChar

StartChar: V
Encoding: 86 86 10
Width: 780
VWidth: 0
Flags: HMW
AnchorPoint: "ced" 390 0 basechar 0
AnchorPoint: "dot" 389 760 basechar 0
LayerCount: 2
Fore
SplineSet
430 0 m 1
 370 0 l 1
 380 10 l 1
 430 10 l 1
 430 0 l 1
115 700 m 5
 434 10 l 1
 370 0 l 1
 40 700 l 1
 115 700 l 5
430 0 m 1
 366 10 l 1
 673 700 l 1
 740 700 l 1
 430 0 l 1
EndSplineSet
EndChar

StartChar: G
Encoding: 71 71 11
Width: 782
VWidth: 0
Flags: HMW
AnchorPoint: "ced" 425 0 basechar 0
AnchorPoint: "dot" 425 760 basechar 0
LayerCount: 2
Fore
SplineSet
702 370 m 1
 702 300 l 1
 425 300 l 1
 425 370 l 1
 702 370 l 1
702 113 m 1
 632 113 l 1
 632 370 l 1
 702 370 l 1
 702 113 l 1
140 350 m 4
 140 184 264 60 425 60 c 4
 508 60 596 105 649 166 c 5
 702 113 l 1
 637 38 531 -10 425 -10 c 0
 230 -10 70 151 70 350 c 0
 70 549 230 710 425 710 c 0
 531 710 627 662 692 587 c 1
 644 539 l 1
 591 600 508 640 425 640 c 4
 264 640 140 516 140 350 c 4
EndSplineSet
EndChar

StartChar: D
Encoding: 68 68 12
Width: 810
VWidth: 0
Flags: HMW
AnchorPoint: "ced" 325 0 basechar 0
AnchorPoint: "dot" 345 760 basechar 0
LayerCount: 2
Fore
SplineSet
100 700 m 1
 380 700 l 1
 380 630 l 1
 100 630 l 1
 100 700 l 1
100 70 m 5
 380 70 l 5
 380 0 l 1
 100 0 l 1
 100 70 l 5
100 700 m 1
 170 700 l 1
 170 0 l 1
 100 0 l 1
 100 700 l 1
380 70 m 5
 541 70 670 184 670 350 c 0
 670 516 541 630 380 630 c 1
 380 700 l 1
 575 700 740 549 740 350 c 0
 740 151 575 0 380 0 c 1
 380 70 l 5
EndSplineSet
EndChar

StartChar: U
Encoding: 85 85 13
Width: 760
VWidth: 0
Flags: HMW
AnchorPoint: "ced" 380 0 basechar 0
AnchorPoint: "dot" 380 760 basechar 0
LayerCount: 2
Fore
SplineSet
605 280 m 1
 605 700 l 1
 670 700 l 1
 670 280 l 1
 605 280 l 1
90 280 m 1
 90 700 l 1
 155 700 l 1
 155 280 l 1
 90 280 l 1
605 280 m 1
 670 280 l 1
 670 111 539 -10 380 -10 c 0
 221 -10 90 111 90 280 c 1
 155 280 l 1
 155 151 253 55 380 55 c 0
 507 55 605 151 605 280 c 1
EndSplineSet
EndChar

StartChar: o
Encoding: 111 111 14
Width: 650
VWidth: 0
Flags: HMW
AnchorPoint: "ced" 325 0 basechar 0
AnchorPoint: "dot" 325 673 basechar 0
LayerCount: 2
Fore
SplineSet
120 260 m 0
 120 144 212 50 325 50 c 0
 438 50 530 144 530 260 c 0
 530 376 438 470 325 470 c 0
 212 470 120 376 120 260 c 0
55 260 m 0
 55 409 176 530 325 530 c 0
 474 530 595 409 595 260 c 0
 595 111 474 -10 325 -10 c 0
 176 -10 55 111 55 260 c 0
EndSplineSet
EndChar

StartChar: B
Encoding: 66 66 15
Width: 695
VWidth: 0
Flags: HMW
AnchorPoint: "ced" 327 0 basechar 0
AnchorPoint: "dot" 308 760 basechar 0
LayerCount: 2
Fore
SplineSet
360 388 m 1
 453 388 528 412 528 507 c 0
 528 602 453 630 360 630 c 1
 360 700 l 1
 489 700 598 631 598 507 c 0
 598 384 499 330 360 330 c 1
 360 388 l 1
100 700 m 1
 170 700 l 1
 170 0 l 1
 100 0 l 1
 100 700 l 1
100 70 m 1
 400 70 l 1
 400 0 l 1
 100 0 l 1
 100 70 l 1
100 700 m 1
 360 700 l 1
 360 630 l 1
 100 630 l 1
 100 700 l 1
100 388 m 1
 400 388 l 1
 400 318 l 1
 100 318 l 1
 100 388 l 1
400 70 m 1
 493 70 575 95 575 195 c 0
 575 295 493 318 400 318 c 1
 400 375 l 1
 539 375 645 324 645 195 c 0
 645 66 539 0 400 0 c 1
 400 70 l 1
EndSplineSet
EndChar

StartChar: K
Encoding: 75 75 16
Width: 745
VWidth: 0
Flags: HMW
AnchorPoint: "ced" 665 0 basechar 0
AnchorPoint: "dot" 355 760 basechar 0
LayerCount: 2
Fore
SplineSet
299 413 m 5
 378 413 l 1
 720 0 l 1
 641 0 l 5
 299 413 l 5
585 700 m 1
 670 700 l 1
 170 207 l 1
 105 230 l 1
 585 700 l 1
100 700 m 1
 170 700 l 1
 170 0 l 1
 100 0 l 1
 100 700 l 1
EndSplineSet
EndChar

StartChar: R
Encoding: 82 82 17
Width: 718
VWidth: 0
Flags: HMW
AnchorPoint: "ced" 610 0 basechar 0
AnchorPoint: "dot" 340 760 basechar 0
LayerCount: 2
Fore
SplineSet
400 333 m 1
 498 333 568 387 568 477 c 0
 568 567 498 630 400 630 c 1
 400 700 l 1
 529 700 638 602 638 477 c 0
 638 353 529 263 400 263 c 1
 400 333 l 1
348 320 m 5
 433 320 l 1
 673 0 l 1
 588 0 l 5
 348 320 l 5
100 700 m 1
 170 700 l 1
 170 0 l 1
 100 0 l 1
 100 700 l 1
105 700 m 1
 400 700 l 1
 400 630 l 1
 105 630 l 1
 105 700 l 1
105 333 m 1
 400 333 l 1
 400 263 l 1
 105 263 l 1
 105 333 l 1
EndSplineSet
EndChar

StartChar: P
Encoding: 80 80 18
Width: 643
VWidth: 0
Flags: HMW
AnchorPoint: "ced" 140 0 basechar 0
AnchorPoint: "dot" 320 760 basechar 0
LayerCount: 2
Fore
SplineSet
360 333 m 5
 458 333 528 387 528 477 c 4
 528 567 458 630 360 630 c 5
 360 700 l 5
 489 700 598 602 598 477 c 4
 598 353 489 263 360 263 c 5
 360 333 l 5
100 700 m 1
 170 700 l 1
 170 0 l 1
 100 0 l 1
 100 700 l 1
105 700 m 1
 360 700 l 1
 360 630 l 1
 105 630 l 1
 105 700 l 1
105 333 m 1
 360 333 l 1
 360 263 l 1
 105 263 l 1
 105 333 l 1
EndSplineSet
EndChar

StartChar: Q
Encoding: 81 81 19
Width: 849
VWidth: 0
Flags: HMW
AnchorPoint: "ced" 425 0 basechar 0
AnchorPoint: "dot" 425 760 basechar 0
LayerCount: 2
Fore
SplineSet
140 350 m 0
 140 190 265 60 425 60 c 0
 585 60 710 190 710 350 c 0
 710 510 585 640 425 640 c 0
 265 640 140 510 140 350 c 0
745 -34 m 5
 477 234 l 5
 525 282 l 1
 793 15 l 1
 745 -34 l 5
70 350 m 0
 70 549 230 710 425 710 c 0
 620 710 780 549 780 350 c 0
 780 151 620 -10 425 -10 c 0
 230 -10 70 151 70 350 c 0
EndSplineSet
EndChar

StartChar: J
Encoding: 74 74 20
Width: 599
VWidth: 0
Flags: HMW
AnchorPoint: "ced" 265 0 basechar 0
AnchorPoint: "dot" 265 760 basechar 0
LayerCount: 2
Fore
SplineSet
434 260 m 1
 434 700 l 1
 499 700 l 1
 499 260 l 1
 434 260 l 1
434 260 m 5
 499 260 l 1
 499 91 404 -10 265 -10 c 0
 157 -10 72 51 30 157 c 1
 86 187 l 1
 121 104 177 54 265 54 c 0
 362 54 434 131 434 260 c 5
EndSplineSet
EndChar

StartChar: S
Encoding: 83 83 21
Width: 625
VWidth: 0
Flags: HMW
AnchorPoint: "ced" 315 0 basechar 0
AnchorPoint: "dot" 335 760 basechar 0
LayerCount: 2
Fore
SplineSet
500 195 m 1
 565 195 l 1
 565 66 477 -10 328 -10 c 0
 199 -10 112 56 50 113 c 1
 94 166 l 1
 142 122 220 55 328 55 c 0
 421 55 500 95 500 195 c 1
154 532 m 1
 90 527 l 1
 90 638 196 710 315 710 c 0
 414 710 496 674 548 622 c 1
 506 574 l 1
 461 618 383 645 325 645 c 0
 222 645 154 599 154 532 c 1
328 397 m 4
 454.646484375 376.821289062 565 330 565 195 c 1
 500 195 l 1
 500 276 422.788085938 319.172851562 324 332 c 0
 193.581054688 348.934570312 90 412 90 527 c 1
 154 532 l 1
 154 447 221.9609375 413.895507812 328 397 c 4
EndSplineSet
EndChar

StartChar: M
Encoding: 77 77 22
Width: 932
VWidth: 0
Flags: HMW
AnchorPoint: "ced" 790 0 basechar 0
AnchorPoint: "dot" 470 760 basechar 0
LayerCount: 2
Fore
SplineSet
490 130 m 1
 442 130 l 1
 442 180 l 5
 490 180 l 5
 490 130 l 1
762 640 m 1
 772 700 l 1
 832 700 l 1
 832 680 l 1
 762 640 l 1
817 650 m 1
 490 130 l 1
 442 180 l 5
 772 700 l 1
 817 650 l 1
832 680 m 1
 832 0 l 1
 762 0 l 1
 762 640 l 1
 832 680 l 1
170 640 m 1
 100 680 l 1
 100 700 l 1
 160 700 l 1
 170 640 l 1
115 650 m 1
 160 700 l 1
 490 180 l 5
 442 130 l 1
 115 650 l 1
100 680 m 1
 170 640 l 1
 170 0 l 1
 100 0 l 1
 100 680 l 1
EndSplineSet
EndChar

StartChar: Y
Encoding: 89 89 23
Width: 680
VWidth: 0
Flags: HMW
AnchorPoint: "ced" 345 0 basechar 0
AnchorPoint: "dot" 337 760 basechar 0
LayerCount: 2
Fore
SplineSet
305 295 m 1
 375 295 l 1
 375 0 l 1
 305 0 l 1
 305 295 l 1
30 700 m 1
 110 700 l 1
 365 295 l 1
 335 217 l 1
 30 700 l 1
570 700 m 5
 650 700 l 1
 345 217 l 1
 315 295 l 5
 570 700 l 5
EndSplineSet
EndChar

StartChar: W
Encoding: 87 87 24
Width: 1065
VWidth: 0
Flags: HMW
AnchorPoint: "ced" 750 0 basechar 0
AnchorPoint: "dot" 530 760 basechar 0
LayerCount: 2
Fore
SplineSet
500 700 m 1
 565 700 l 1
 561 690 l 1
 504 690 l 1
 500 700 l 1
780 0 m 1
 720 0 l 1
 720 10 l 1
 780 10 l 1
 780 0 l 1
565 700 m 1
 780 10 l 1
 720 0 l 1
 504 690 l 1
 565 700 l 1
780 0 m 1
 720 10 l 1
 950 700 l 1
 1020 700 l 1
 780 0 l 1
345 0 m 1
 285 0 l 1
 285 10 l 1
 345 10 l 1
 345 0 l 1
115 700 m 5
 345 10 l 1
 285 0 l 1
 45 700 l 1
 115 700 l 5
345 0 m 1
 285 10 l 1
 500 700 l 1
 561 690 l 1
 345 0 l 1
EndSplineSet
EndChar

StartChar: N
Encoding: 78 78 25
Width: 790
VWidth: 0
Flags: HMW
AnchorPoint: "ced" 650 0 basechar 0
AnchorPoint: "dot" 400 760 basechar 0
LayerCount: 2
Fore
SplineSet
690 0 m 1
 630 0 l 5
 630 24 l 5
 690 14 l 1
 690 0 l 1
160 700 m 1
 160 680 l 1
 100 680 l 1
 100 700 l 1
 160 700 l 1
100 665 m 1
 160 700 l 1
 690 35 l 1
 630 0 l 5
 100 665 l 1
620 700 m 5
 690 700 l 1
 690 0 l 1
 620 20 l 5
 620 700 l 5
100 700 m 1
 170 680 l 1
 170 0 l 1
 100 0 l 1
 100 700 l 1
EndSplineSet
EndChar

StartChar: X
Encoding: 88 88 26
Width: 750
VWidth: 0
Flags: HMW
AnchorPoint: "ced" 645 0 basechar 0
AnchorPoint: "dot" 374 760 basechar 0
LayerCount: 2
Fore
SplineSet
65 700 m 1
 150 700 l 1
 705 0 l 1
 620 0 l 5
 65 700 l 1
600 700 m 5
 685 700 l 1
 130 0 l 1
 45 0 l 1
 600 700 l 5
EndSplineSet
EndChar

StartChar: Z
Encoding: 90 90 27
Width: 680
VWidth: 0
Flags: HMW
AnchorPoint: "ced" 495 0 basechar 0
AnchorPoint: "dot" 335 760 basechar 0
LayerCount: 2
Fore
SplineSet
595 640 m 1
 585 640 l 1
 585 700 l 1
 595 700 l 1
 595 640 l 1
65 60 m 1
 75 60 l 1
 75 0 l 1
 65 0 l 1
 65 60 l 1
85 700 m 1
 585 700 l 1
 585 630 l 1
 85 630 l 1
 85 700 l 1
75 70 m 1
 615 70 l 1
 615 0 l 1
 75 0 l 1
 75 70 l 1
510 640 m 5
 595 640 l 1
 150 60 l 1
 65 60 l 1
 510 640 l 5
EndSplineSet
EndChar

StartChar: l
Encoding: 108 108 28
Width: 265
VWidth: 0
Flags: HMW
AnchorPoint: "ced" 133 0 basechar 0
AnchorPoint: "dot" 133 793 basechar 0
LayerCount: 2
Fore
SplineSet
100 730 m 1
 165 730 l 5
 165 0 l 5
 100 0 l 1
 100 730 l 1
EndSplineSet
EndChar

StartChar: b
Encoding: 98 98 29
Width: 655
VWidth: 0
Flags: HMW
AnchorPoint: "ced" 356 0 basechar 0
AnchorPoint: "dot" 360 673 basechar 0
LayerCount: 2
Fore
SplineSet
150 260 m 4
 150 131 238 50 345 50 c 4
 452 50 535 131 535 260 c 4
 535 389 452 470 345 470 c 4
 238 470 150 389 150 260 c 4
115 260 m 4
 115 419 196 530 355 530 c 4
 484 530 600 419 600 260 c 4
 600 101 484 -10 355 -10 c 4
 196 -10 115 101 115 260 c 4
85 730 m 5
 150 730 l 5
 150 0 l 5
 85 0 l 5
 85 730 l 5
EndSplineSet
EndChar

StartChar: c
Encoding: 99 99 30
Width: 573
VWidth: 0
Flags: HMW
AnchorPoint: "ced" 325 0 basechar 0
AnchorPoint: "dot" 325 673 basechar 0
LayerCount: 2
Fore
SplineSet
120 260 m 4
 120 141 208 50 325 50 c 4
 397 50 454 85 491 134 c 5
 533 92 l 5
 486 28 412 -10 325 -10 c 4
 176 -10 55 111 55 260 c 4
 55 409 176 530 325 530 c 4
 412 530 485 491 532 428 c 5
 491 386 l 5
 454 435 397 470 325 470 c 4
 208 470 120 379 120 260 c 4
EndSplineSet
EndChar

StartChar: d
Encoding: 100 100 31
Width: 655
VWidth: 0
Flags: HMW
AnchorPoint: "ced" 300 0 basechar 0
AnchorPoint: "dot" 295 673 basechar 0
LayerCount: 2
Fore
SplineSet
505 260 m 4
 505 389 417 470 310 470 c 4
 203 470 120 389 120 260 c 4
 120 131 203 50 310 50 c 4
 417 50 505 131 505 260 c 4
540 260 m 4
 540 101 459 -10 300 -10 c 4
 171 -10 55 101 55 260 c 4
 55 419 171 530 300 530 c 4
 459 530 540 419 540 260 c 4
570 730 m 1
 570 0 l 1
 505 0 l 1
 505 730 l 1
 570 730 l 1
EndSplineSet
EndChar

StartChar: k
Encoding: 107 107 32
Width: 615
VWidth: 0
Flags: HMW
AnchorPoint: "ced" 535 0 basechar 0
AnchorPoint: "dot" 325 673 basechar 0
LayerCount: 2
Fore
SplineSet
267 291 m 5
 330 311 l 1
 590 0 l 1
 514 0 l 5
 267 291 l 5
484 520 m 1
 570 520 l 1
 150 110 l 1
 110 154 l 1
 484 520 l 1
85 730 m 1
 150 730 l 1
 150 0 l 1
 85 0 l 1
 85 730 l 1
EndSplineSet
EndChar

StartChar: e
Encoding: 101 101 33
Width: 615
VWidth: 0
Flags: HMW
AnchorPoint: "ced" 320 0 basechar 0
AnchorPoint: "dot" 310 673 basechar 0
LayerCount: 2
Fore
SplineSet
565 260 m 1
 565 240 l 1
 500 240 l 1
 500 260 l 1
 565 260 l 1
500 240 m 1
 94 240 l 1
 94 297 l 1
 500 297 l 1
 500 240 l 1
500 260 m 1
 500 389 427 470 310 470 c 0
 193 470 120 389 120 260 c 1
 55 260 l 1
 55 419 171 530 310 530 c 0
 449 530 565 419 565 260 c 1
 500 260 l 1
55 260 m 1
 120 260 l 1
 120 131 203 50 320 50 c 0
 394 50 459 85 496 134 c 5
 538 92 l 1
 491 28 407 -10 320 -10 c 0
 171 -10 55 101 55 260 c 1
EndSplineSet
EndChar

StartChar: p
Encoding: 112 112 34
Width: 655
VWidth: 0
Flags: HMW
AnchorPoint: "ced" 355 0 basechar 0
AnchorPoint: "dot" 360 673 basechar 0
LayerCount: 2
Fore
SplineSet
150 260 m 0
 150 131 238 50 345 50 c 0
 452 50 535 131 535 260 c 0
 535 389 452 470 345 470 c 0
 238 470 150 389 150 260 c 0
115 260 m 0
 115 419 196 530 355 530 c 0
 484 530 600 419 600 260 c 0
 600 101 484 -10 355 -10 c 0
 196 -10 115 101 115 260 c 0
85 -200 m 5
 85 520 l 1
 150 520 l 1
 150 -200 l 5
 85 -200 l 5
EndSplineSet
EndChar

StartChar: q
Encoding: 113 113 35
Width: 655
VWidth: 0
Flags: HMW
AnchorPoint: "ced" 300 0 basechar 0
AnchorPoint: "dot" 295 673 basechar 0
LayerCount: 2
Fore
SplineSet
505 260 m 0
 505 389 417 470 310 470 c 0
 203 470 120 389 120 260 c 0
 120 131 203 50 310 50 c 0
 417 50 505 131 505 260 c 0
540 260 m 0
 540 101 459 -10 300 -10 c 0
 171 -10 55 101 55 260 c 0
 55 419 171 530 300 530 c 0
 459 530 540 419 540 260 c 0
570 -200 m 1
 505 -200 l 1
 505 520 l 1
 570 520 l 1
 570 -200 l 1
EndSplineSet
EndChar

StartChar: h
Encoding: 104 104 36
Width: 635
VWidth: 0
Flags: HMW
AnchorPoint: "ced" 510 0 basechar 0
AnchorPoint: "dot" 350 673 basechar 0
LayerCount: 2
Fore
SplineSet
555 300 m 1
 555 0 l 1
 490 0 l 1
 490 300 l 1
 555 300 l 1
490 300 m 1
 490 390 445 470 330 470 c 0
 222 470 150 390 150 280 c 1
 115 280 l 1
 115 399 186 530 345 530 c 0
 474 530 555 429 555 300 c 1
 490 300 l 1
85 730 m 1
 150 730 l 1
 150 0 l 1
 85 0 l 1
 85 730 l 1
EndSplineSet
EndChar

StartChar: n
Encoding: 110 110 37
Width: 635
VWidth: 0
Flags: HMW
AnchorPoint: "ced" 530 0 basechar 0
AnchorPoint: "dot" 330 673 basechar 0
LayerCount: 2
Fore
SplineSet
555 300 m 5
 555 0 l 5
 490 0 l 5
 490 300 l 5
 555 300 l 5
85 520 m 5
 150 520 l 5
 150 0 l 5
 85 0 l 5
 85 520 l 5
490 300 m 5
 490 390 445 470 330 470 c 4
 222 470 150 390 150 280 c 5
 115 280 l 5
 115 399 186 530 345 530 c 4
 474 530 555 429 555 300 c 5
 490 300 l 5
EndSplineSet
EndChar

StartChar: m
Encoding: 109 109 38
Width: 900
VWidth: 0
Flags: HMW
AnchorPoint: "ced" 795 0 basechar 0
AnchorPoint: "dot" 450 673 basechar 0
LayerCount: 2
Fore
SplineSet
825 300 m 1
 825 0 l 1
 760 0 l 1
 760 300 l 1
 825 300 l 1
760 300 m 1
 760 390 735 475 630 475 c 0
 547 475 487 390 487 280 c 1
 452 280 l 1
 452 419 516 530 650 530 c 4
 774 530 825 429 825 300 c 1
 760 300 l 1
487 300 m 1
 487 0 l 1
 423 0 l 1
 423 300 l 1
 487 300 l 1
85 520 m 1
 150 520 l 1
 150 0 l 1
 85 0 l 1
 85 520 l 1
423 300 m 1
 423 390 400 475 295 475 c 4
 212 475 150 390 150 280 c 1
 115 280 l 1
 115 419 181 530 315 530 c 4
 439 530 487 429 487 300 c 1
 423 300 l 1
EndSplineSet
EndChar

StartChar: r
Encoding: 114 114 39
Width: 410
VWidth: 0
Flags: HMW
AnchorPoint: "ced" 120 0 basechar 0
AnchorPoint: "dot" 220 673 basechar 0
LayerCount: 2
Fore
SplineSet
85 520 m 1
 150 520 l 1
 150 0 l 1
 85 0 l 1
 85 520 l 1
380 460 m 1
 360 460 l 2
 236 460 150 380 150 270 c 1
 115 270 l 5
 115 419 201 520 380 520 c 1
 380 460 l 1
EndSplineSet
EndChar

StartChar: u
Encoding: 117 117 40
Width: 635
VWidth: 0
Flags: HMW
AnchorPoint: "ced" 285 0 basechar 0
AnchorPoint: "dot" 305 673 basechar 0
LayerCount: 2
Fore
SplineSet
550 0 m 1
 485 0 l 1
 485 520 l 1
 550 520 l 1
 550 0 l 1
145 220 m 1
 145 130 190 50 305 50 c 0
 413 50 485 130 485 240 c 1
 520 240 l 1
 520 121 449 -10 290 -10 c 0
 161 -10 80 91 80 220 c 1
 145 220 l 1
80 220 m 1
 80 520 l 1
 145 520 l 1
 145 220 l 1
 80 220 l 1
EndSplineSet
EndChar

StartChar: g
Encoding: 103 103 41
Width: 655
VWidth: 0
Flags: HMW
AnchorPoint: "dot" 300 673 basechar 0
LayerCount: 2
Fore
SplineSet
505 260 m 0
 505 389 417 470 310 470 c 0
 203 470 120 389 120 260 c 0
 120 131 203 50 310 50 c 0
 417 50 505 131 505 260 c 0
540 260 m 0
 540 101 459 -10 300 -10 c 0
 171 -10 55 101 55 260 c 0
 55 419 171 530 300 530 c 0
 459 530 540 419 540 260 c 0
323 -160 m 1
 323 -220 l 1
 186 -220 104 -172 57 -108 c 1
 98 -66 l 5
 139 -111 200 -160 323 -160 c 1
570 20 m 1
 505 20 l 1
 505 520 l 1
 570 520 l 1
 570 20 l 1
505 20 m 1
 570 20 l 1
 570 -119 452 -220 323 -220 c 1
 323 -160 l 1
 410 -160 505 -89 505 20 c 1
EndSplineSet
EndChar

StartChar: i
Encoding: 105 105 42
Width: 255
VWidth: 0
Flags: HMW
AnchorPoint: "ced" 125 0 basechar 0
LayerCount: 2
Fore
SplineSet
79 692 m 4
 79 718 101 740 127 740 c 4
 153 740 175 718 175 692 c 4
 175 666 153 644 127 644 c 4
 101 644 79 666 79 692 c 4
95 520 m 1
 160 520 l 1
 160 0 l 1
 95 0 l 1
 95 520 l 1
EndSplineSet
EndChar

StartChar: t
Encoding: 116 116 43
Width: 420
VWidth: 0
Flags: HMW
AnchorPoint: "ced" 257 0 basechar 0
AnchorPoint: "dot" 285 673 basechar 0
LayerCount: 2
Fore
SplineSet
40 520 m 1
 370 520 l 1
 370 460 l 1
 40 460 l 1
 40 520 l 1
185 140 m 1
 120 140 l 1
 120 673 l 1
 185 673 l 1
 185 140 l 1
264 50 m 1
 313 50 345 74 362 93 c 1
 392 42 l 1
 365 13 320 -10 258 -10 c 1
 264 50 l 1
185 140 m 1
 185 90 206 50 264 50 c 1
 258 -10 l 5
 159 -10 120 61 120 140 c 1
 185 140 l 1
EndSplineSet
EndChar

StartChar: a
Encoding: 97 97 44
Width: 580
VWidth: 0
Flags: HMW
AnchorPoint: "ced" 467 0 basechar 0
AnchorPoint: "ring" 285 673 basechar 0
AnchorPoint: "dot" 285 673 basechar 0
LayerCount: 2
Fore
SplineSet
320 312 m 1
 470 312 l 1
 470 263 l 1
 350 263 l 1
 320 312 l 1
440 330 m 1
 440 420 404 475 288 475 c 1
 294 530 l 1
 437 530 505 449 505 330 c 1
 440 330 l 1
288 475 m 1
 206 475 163 443 114 403 c 5
 80 450 l 1
 137 499 192 530 294 530 c 1
 288 475 l 1
440 330 m 1
 505 330 l 1
 505 0 l 1
 440 0 l 1
 440 330 l 1
108 155 m 1
 108 87 157 50 270 50 c 0
 358 50 440 100 440 180 c 1
 475 180 l 1
 475 71 389 -10 240 -10 c 0
 141 -10 43 41 43 160 c 1
 108 155 l 1
320 312 m 1
 350 263 l 1
 201 263 108 250 108 155 c 1
 43 160 l 1
 43 295 183 312 320 312 c 1
EndSplineSet
EndChar

StartChar: j
Encoding: 106 106 45
Width: 255
VWidth: 0
Flags: HMW
LayerCount: 2
Fore
SplineSet
83 692 m 0
 83 718 105 740 131 740 c 0
 157 740 179 718 179 692 c 0
 179 666 157 644 131 644 c 0
 105 644 83 666 83 692 c 0
99 520 m 1
 164 520 l 1
 164 -60 l 1
 99 -60 l 1
 99 520 l 1
26 -150 m 1
 32 -210 l 1
 -25 -210 -75 -192 -102 -158 c 1
 -73 -108 l 1
 -56 -127 -17 -150 26 -150 c 1
99 -60 m 1
 164 -60 l 1
 164 -139 121 -210 32 -210 c 1
 26 -150 l 1
 73 -150 99 -110 99 -60 c 1
EndSplineSet
EndChar

StartChar: s
Encoding: 115 115 46
Width: 520
VWidth: 0
Flags: HMW
AnchorPoint: "ced" 265 0 basechar 0
AnchorPoint: "dot" 265 673 basechar 0
LayerCount: 2
Fore
SplineSet
410 150 m 1
 475 150 l 1
 475 71 414 -10 275 -10 c 0
 166 -10 100 37 45 104 c 1
 93 148 l 1
 139 98 187 50 275 50 c 0
 358 50 410 80 410 150 c 1
135 388 m 1
 70 388 l 1
 70 464 146 530 255 530 c 0
 364 530 416 496 458 448 c 1
 416 400 l 1
 384 432 343 470 255 470 c 0
 167 470 135 430 135 388 c 1
280 302 m 0
 397 283 475 260 475 150 c 1
 410 150 l 1
 410 210 363.594726562 226.76171875 255 242 c 0
 151.522460938 256.520507812 70 293 70 388 c 1
 135 388 l 1
 135 338 182.280273438 317.869140625 280 302 c 0
EndSplineSet
EndChar

StartChar: v
Encoding: 118 118 47
Width: 590
VWidth: 0
Flags: HMW
AnchorPoint: "ced" 297 0 basechar 0
AnchorPoint: "dot" 293 673 basechar 0
LayerCount: 2
Fore
SplineSet
335 0 m 1
 255 0 l 1
 255 5 l 1
 335 5 l 1
 335 0 l 1
270 5 m 5
 485 520 l 5
 555 520 l 1
 335 0 l 1
 270 5 l 5
35 520 m 1
 105 520 l 1
 320 5 l 1
 255 0 l 1
 35 520 l 1
EndSplineSet
EndChar

StartChar: f
Encoding: 102 102 48
Width: 375
VWidth: 0
Flags: HMW
AnchorPoint: "ced" 155 0 basechar 0
LayerCount: 2
Fore
SplineSet
45 520 m 1
 348 520 l 1
 348 460 l 1
 45 460 l 1
 45 520 l 1
190 590 m 1
 190 0 l 1
 125 0 l 1
 125 590 l 1
 190 590 l 1
273 680 m 1
 267 740 l 1
 329 740 369 718 395 688 c 1
 367 639 l 1
 348 660 321 680 273 680 c 1
190 590 m 1
 125 590 l 1
 125 669 178 740 267 740 c 1
 273 680 l 1
 208 680 190 639 190 590 c 1
EndSplineSet
Substitution2: "fi-1" fi
EndChar

StartChar: y
Encoding: 121 121 49
Width: 579
VWidth: 0
Flags: HMW
AnchorPoint: "dot" 295 673 basechar 0
LayerCount: 2
Fore
SplineSet
39 520 m 1
 109 520 l 1
 349 -8 l 1
 284 -13 l 1
 39 520 l 1
169 -150 m 5
 169 -210 l 1
 112 -210 62 -184 35 -150 c 1
 65 -99 l 1
 82 -118 118 -150 169 -150 c 5
264 -60 m 2
 479 520 l 1
 544 520 l 1
 329 -60 l 2
 299.508789062 -139.55859375 258 -210 169 -210 c 1
 169 -150 l 5
 227 -150 249.153320312 -100.05078125 264 -60 c 2
EndSplineSet
EndChar

StartChar: w
Encoding: 119 119 50
Width: 795
VWidth: 0
Flags: HMW
AnchorPoint: "ced" 565 0 basechar 0
AnchorPoint: "dot" 398 673 basechar 0
LayerCount: 2
Fore
SplineSet
380 520 m 1
 415 520 l 1
 415 470 l 1
 380 470 l 1
 380 520 l 1
605 0 m 1
 555 0 l 1
 555 35 l 1
 605 25 l 1
 605 0 l 1
555 35 m 1
 685 520 l 1
 755 520 l 1
 605 0 l 1
 555 35 l 1
375 470 m 1
 415 520 l 1
 605 25 l 1
 555 0 l 1
 375 470 l 1
240 0 m 1
 190 0 l 1
 190 25 l 1
 240 35 l 1
 240 0 l 1
190 25 m 1
 380 520 l 1
 420 470 l 1
 240 0 l 1
 190 25 l 1
40 520 m 1
 110 520 l 1
 240 35 l 1
 190 0 l 1
 40 520 l 1
EndSplineSet
EndChar

StartChar: x
Encoding: 120 120 51
Width: 615
VWidth: 0
Flags: HMW
AnchorPoint: "ced" 515 0 basechar 0
AnchorPoint: "dot" 305 673 basechar 0
LayerCount: 2
Fore
SplineSet
40 0 m 1
 470 520 l 1
 555 520 l 1
 125 0 l 1
 40 0 l 1
60 520 m 1
 145 520 l 1
 575 0 l 1
 490 0 l 1
 60 520 l 1
EndSplineSet
EndChar

StartChar: z
Encoding: 122 122 52
Width: 570
VWidth: 0
Flags: HMW
AnchorPoint: "ced" 445 0 basechar 0
AnchorPoint: "dot" 290 673 basechar 0
LayerCount: 2
Fore
SplineSet
55 50 m 1
 75 50 l 1
 75 0 l 1
 55 0 l 1
 55 50 l 1
75 60 m 1
 515 60 l 1
 515 0 l 1
 75 0 l 1
 75 60 l 1
485 520 m 1
 505 520 l 1
 505 470 l 1
 485 470 l 1
 485 520 l 1
75 520 m 1
 485 520 l 1
 485 460 l 1
 75 460 l 1
 75 520 l 1
425 470 m 1
 505 470 l 1
 135 50 l 5
 55 50 l 1
 425 470 l 1
EndSplineSet
EndChar

StartChar: zero
Encoding: 48 48 53
Width: 600
VWidth: 0
Flags: HMW
LayerCount: 2
Fore
SplineSet
85 350 m 0
 85 193 168 60 300 60 c 4
 432 60 515 193 515 350 c 0
 515 507 432 640 300 640 c 0
 168 640 85 507 85 350 c 0
15 350 m 0
 15 549 125 710 300 710 c 0
 475 710 585 549 585 350 c 0
 585 151 475 -10 300 -10 c 0
 125 -10 15 151 15 350 c 0
EndSplineSet
EndChar

StartChar: one
Encoding: 49 49 54
Width: 600
VWidth: 0
Flags: HMW
LayerCount: 2
Fore
SplineSet
380 700 m 1
 380 676 l 1
 320 676 l 1
 320 700 l 1
 380 700 l 1
320 700 m 1
 354 643 l 5
 154 513 l 5
 120 570 l 1
 320 700 l 1
310 690 m 1
 380 700 l 1
 380 0 l 1
 310 0 l 1
 310 690 l 1
EndSplineSet
EndChar

StartChar: six
Encoding: 54 54 55
Width: 600
VWidth: 0
Flags: HMW
LayerCount: 2
Fore
SplineSet
110 220 m 1
 75 220 l 1
 75 349 181 445 330 445 c 1
 300 390 l 1
 198 390 110 320 110 220 c 1
110 220 m 0
 110 120 198 50 300 50 c 0
 412 50 490 120 490 220 c 0
 490 320 412 390 300 390 c 1
 330 445 l 1
 459 445 550 349 550 220 c 0
 550 91 449 -10 300 -10 c 0
 151 -10 50 91 50 220 c 0
 50 277.265805412 73.9301886792 327.205660377 108 377 c 2
 329 700 l 1
 413 700 l 1
 161.537109375 351.75390625 l 1
 165.174804688 384.909179688 l 1
 126.650390625 355.858398438 110 271.161132812 110 220 c 0
EndSplineSet
EndChar

StartChar: period
Encoding: 46 46 56
Width: 230
VWidth: 0
Flags: HMW
LayerCount: 2
Fore
SplineSet
61 45 m 4
 61 75 85 100 115 100 c 4
 145 100 169 75 169 45 c 4
 169 15 145 -10 115 -10 c 4
 85 -10 61 15 61 45 c 4
EndSplineSet
EndChar

StartChar: comma
Encoding: 44 44 58
Width: 254
VWidth: 0
Flags: HMW
LayerCount: 2
Fore
SplineSet
81 45 m 0
 81 75 105 100 137 100 c 4
 167 100 193 80 193 45 c 0
 193 31.3974609375 187.934570312 18.9521484375 180.875 6.7744140625 c 2
 100 -130 l 1
 65 -130 l 1
 119.847728817 -7.79541123153 l 1
 97.3108761199 -1.06533596992 81 20.2682824192 81 45 c 0
EndSplineSet
EndChar

StartChar: two
Encoding: 50 50 60
Width: 600
VWidth: 0
Flags: HMW
LayerCount: 2
Fore
SplineSet
50 55 m 1
 70 55 l 1
 70 0 l 1
 50 0 l 1
 50 55 l 1
453 516 m 5
 453 585 397 645 300 645 c 0
 201 645 142 580 107 497 c 1
 50 523 l 1
 92 629 182 710 300 710 c 0
 429 710 520 615 520 516 c 1
 453 516 l 5
70 0 m 1
 70 65 l 1
 550 65 l 1
 550 0 l 1
 70 0 l 1
359 255 m 2
 140 55 l 1
 50 55 l 1
 313 300 l 2
 409.442382812 388.848632812 453 445 453 516 c 5
 520 516 l 1
 520 406 462.044921875 348.953125 359 255 c 2
EndSplineSet
EndChar

StartChar: three
Encoding: 51 51 62
Width: 600
VWidth: 0
Flags: HMW
LayerCount: 2
Fore
SplineSet
250 384 m 5
 427 384 550 357 550 197 c 4
 550 57 427 -10 300 -10 c 0
 210 -10 116 14 50 99 c 1
 97 144 l 1
 138 89 222 54 300 54 c 4
 393 54 485 106 485 197 c 4
 485 296 403 335 250 335 c 5
 250 384 l 5
75 602 m 1
 124 660 186 710 300 710 c 0
 434 710 520 629 520 530 c 4
 520 401 424 350 250 350 c 1
 250 400 l 1
 380 400 455 452 455 520 c 0
 455 598 400 645 300 645 c 0
 217 645 163 605 123 557 c 1
 75 602 l 1
EndSplineSet
EndChar

StartChar: eight
Encoding: 56 56 63
Width: 600
VWidth: 0
Flags: HMW
LayerCount: 2
Fore
SplineSet
145 520 m 0
 145 442 220 395 300 395 c 0
 390 395 455 442 455 520 c 0
 455 598 390 645 300 645 c 0
 210 645 145 598 145 520 c 0
80 530 m 0
 80 629 176 710 300 710 c 0
 424 710 520 629 520 530 c 0
 520 411 424 350 300 350 c 0
 176 350 80 411 80 530 c 0
50 187 m 0
 50 327 163 384 300 384 c 0
 437 384 550 327 550 187 c 0
 550 67 437 -10 300 -10 c 0
 163 -10 50 67 50 187 c 0
115 197 m 0
 115 98 197 54 300 54 c 0
 403 54 485 98 485 197 c 0
 485 296 403 340 300 340 c 0
 197 340 115 296 115 197 c 0
EndSplineSet
EndChar

StartChar: four
Encoding: 52 52 64
Width: 600
VWidth: 0
Flags: HMW
LayerCount: 2
Fore
SplineSet
40 200 m 1
 60 200 l 1
 60 145 l 1
 40 145 l 1
 40 200 l 1
60 210 m 1
 550 210 l 1
 550 145 l 1
 60 145 l 1
 60 210 l 1
470 700 m 1
 470 676 l 1
 395 676 l 1
 395 700 l 1
 470 700 l 1
395 700 m 1
 456 679 l 5
 115 200 l 1
 40 200 l 1
 395 700 l 1
405 680 m 1
 470 700 l 1
 470 0 l 1
 405 0 l 1
 405 680 l 1
EndSplineSet
EndChar

StartChar: five
Encoding: 53 53 65
Width: 600
VWidth: 0
Flags: HMW
LayerCount: 2
Fore
SplineSet
70 311 m 1
 80 346 l 1
 115 346 l 1
 115 311 l 1
 70 311 l 1
320 455 m 1
 447 455 550 360 550 220 c 0
 550 70 427 -10 300 -10 c 0
 210 -10 116 14 50 99 c 1
 96 146 l 1
 137 91 217 56 300 56 c 0
 393 56 485 111 485 220 c 4
 485 319 423 390 300 390 c 5
 320 455 l 1
70 311 m 1
 130 700 l 1
 190 700 l 1
 140 341 l 1
 70 311 l 1
130 700 m 1
 510 700 l 1
 510 635 l 1
 130 635 l 1
 130 700 l 1
300 390 m 5
 213 390 155 360 115 311 c 1
 100 311 l 1
 130 400 181 455 320 455 c 1
 300 390 l 5
EndSplineSet
EndChar

StartChar: seven
Encoding: 55 55 66
Width: 600
VWidth: 0
Flags: HMW
LayerCount: 2
Fore
SplineSet
551 650 m 1
 241 0 l 1
 170 0 l 5
 480 650 l 5
 551 650 l 1
530 700 m 1
 551 700 l 1
 551 650 l 1
 530 650 l 1
 530 700 l 1
50 700 m 1
 530 700 l 1
 530 635 l 1
 50 635 l 1
 50 700 l 1
EndSplineSet
EndChar

StartChar: exclam
Encoding: 33 33 67
Width: 230
VWidth: 0
Flags: HMW
LayerCount: 2
Fore
SplineSet
76 490 m 1
 154 490 l 1
 132 250 l 5
 98 250 l 1
 76 490 l 1
76 730 m 1
 154 730 l 1
 154 490 l 1
 76 490 l 1
 76 730 l 1
EndSplineSet
Refer: 56 46 N 1 0 0 1 0 0 2
EndChar

StartChar: quotesingle
Encoding: 39 39 69
Width: 170
VWidth: 0
Flags: HMW
LayerCount: 2
Fore
SplineSet
35 689 m 4
 35 719 55 740 85 740 c 0
 115 740 135 719 135 689 c 4
 135 682.99609375 134.080078125 677.501953125 133.157226562 671.750976562 c 6
 102 480 l 1
 68 480 l 1
 36.8427734375 671.750976562 l 6
 35.9443359375 677.344726562 35 682.99609375 35 689 c 4
EndSplineSet
EndChar

StartChar: numbersign
Encoding: 35 35 70
Width: 810
VWidth: 0
Flags: HMW
LayerCount: 2
Fore
SplineSet
710 230 m 5
 710 175 l 1
 60 175 l 1
 60 230 l 5
 710 230 l 5
750 525 m 1
 750 470 l 1
 100 470 l 1
 100 525 l 1
 750 525 l 1
575 700 m 1
 635 700 l 1
 515 0 l 1
 455 0 l 1
 575 700 l 1
295 700 m 1
 355 700 l 1
 235 0 l 1
 175 0 l 1
 295 700 l 1
EndSplineSet
EndChar

StartChar: percent
Encoding: 37 37 71
Width: 940
VWidth: 0
Flags: HMW
LayerCount: 2
Fore
SplineSet
580 180 m 0
 580 100 640 35 720 35 c 0
 800 35 860 100 860 180 c 0
 860 260 800 325 720 325 c 0
 640 325 580 260 580 180 c 0
80 550 m 0
 80 470 140 405 220 405 c 0
 300 405 360 470 360 550 c 0
 360 630 300 695 220 695 c 0
 140 695 80 630 80 550 c 0
30 550 m 0
 30 655 115 740 220 740 c 0
 325 740 410 655 410 550 c 0
 410 445 325 360 220 360 c 0
 115 360 30 445 30 550 c 0
530 180 m 0
 530 285 615 370 720 370 c 0
 825 370 910 285 910 180 c 0
 910 75 825 -10 720 -10 c 0
 615 -10 530 75 530 180 c 0
710 730 m 1
 770 730 l 1
 230 0 l 1
 170 0 l 1
 710 730 l 1
EndSplineSet
EndChar

StartChar: dollar
Encoding: 36 36 72
Width: 600
VWidth: 0
Flags: HMW
LayerCount: 2
Fore
SplineSet
291 780 m 1
 341 780 l 5
 341 -80 l 5
 291 -80 l 1
 291 780 l 1
EndSplineSet
Refer: 21 83 N 1 0 0 1 -10 0 2
EndChar

StartChar: asterisk
Encoding: 42 42 73
Width: 324
VWidth: 0
Flags: HMW
LayerCount: 2
Fore
SplineSet
42 488 m 5
 22 522 l 5
 282 672 l 5
 302 638 l 5
 42 488 l 5
22 638 m 5
 42 672 l 5
 302 522 l 5
 282 488 l 5
 22 638 l 5
142 730 m 5
 182 730 l 5
 182 430 l 5
 142 430 l 5
 142 730 l 5
EndSplineSet
EndChar

StartChar: slash
Encoding: 47 47 74
Width: 430
VWidth: 0
Flags: HMW
LayerCount: 2
Fore
SplineSet
400 780 m 1
 450 780 l 1
 30 -80 l 5
 -20 -80 l 1
 400 780 l 1
EndSplineSet
EndChar

StartChar: ampersand
Encoding: 38 38 75
Width: 715
VWidth: 0
Flags: HMW
LayerCount: 2
Fore
SplineSet
305 385 m 0
 381.7890625 405.8046875 455 460 455 530 c 1
 515 530 l 1
 515 435 427.557617188 367.01171875 335 345 c 0
 237.270507812 321.758789062 130 291 130 190 c 1
 70 190 l 1
 70 330 199.364257812 356.379882812 305 385 c 0
215 530 m 1
 155 530 l 1
 155 639 226 710 335 710 c 0
 444 710 515 639 515 530 c 1
 455 530 l 1
 455 609 402 645 335 645 c 0
 268 645 215 609 215 530 c 1
301 291 m 2
 208.989257812 392.038085938 155 440 155 530 c 1
 215 530 l 1
 215 449 262.012695312 421.572265625 348 326 c 2
 665 0 l 1
 585 0 l 1
 301 291 l 2
594 307 m 5
 650 284 l 1
 620 115 489 -10 320 -10 c 0
 171 -10 70 71 70 190 c 1
 130 190 l 1
 130 111 213 50 330 50 c 0
 457 50 554 138 594 307 c 5
EndSplineSet
EndChar

StartChar: parenleft
Encoding: 40 40 76
Width: 275
VWidth: 0
Flags: HMW
LayerCount: 2
Fore
SplineSet
215 740 m 1
 255 720 l 5
 75 460 75 70 255 -190 c 5
 215 -210 l 1
 -5 100 -5 430 215 740 c 1
EndSplineSet
EndChar

StartChar: hyphen
Encoding: 45 45 78
Width: 430
VWidth: 0
Flags: HMW
LayerCount: 2
Fore
SplineSet
65 325 m 5
 365 325 l 5
 365 270 l 1
 65 270 l 1
 65 325 l 5
EndSplineSet
EndChar

StartChar: plus
Encoding: 43 43 79
Width: 510
VWidth: 0
Flags: HMW
LayerCount: 2
Fore
SplineSet
285 589 m 1
 285 134 l 1
 225 134 l 1
 225 589 l 1
 285 589 l 1
30 389 m 1
 480 389 l 1
 480 334 l 5
 30 334 l 5
 30 389 l 1
EndSplineSet
EndChar

StartChar: equal
Encoding: 61 61 80
Width: 510
VWidth: 0
Flags: HMW
LayerCount: 2
Fore
SplineSet
30 265 m 1
 480 265 l 1
 480 210 l 1
 30 210 l 1
 30 265 l 1
30 500 m 1
 480 500 l 1
 480 445 l 1
 30 445 l 1
 30 500 l 1
EndSplineSet
EndChar

StartChar: backslash
Encoding: 92 92 81
Width: 430
VWidth: 0
Flags: HMW
LayerCount: 2
Fore
SplineSet
30 780 m 1
 450 -80 l 1
 400 -80 l 5
 -20 780 l 1
 30 780 l 1
EndSplineSet
EndChar

StartChar: less
Encoding: 60 60 82
Width: 510
VWidth: 0
Flags: HMW
LayerCount: 2
Fore
SplineSet
30 395 m 5
 480 195 l 5
 480 120 l 5
 30 320 l 5
 30 395 l 5
30 395 m 5
 480 595 l 5
 480 520 l 5
 30 320 l 5
 30 395 l 5
EndSplineSet
EndChar

StartChar: question
Encoding: 63 63 84
Width: 555
VWidth: 0
Flags: HMW
LayerCount: 2
Fore
SplineSet
336 436 m 0
 391.67578125 464.341796875 435 494 435 556 c 1
 500 556 l 1
 500 461 448.134765625 421.75 370 384 c 0
 311.237304688 355.609375 285 331 285 250 c 1
 225 250 l 1
 205 400 266.790039062 400.768554688 336 436 c 0
435 556 m 1
 435 625 382 675 285 675 c 0
 186 675 133 623 98 560 c 1
 40 593 l 1
 82 679 162 740 285 740 c 0
 419 740 500 655 500 556 c 1
 435 556 l 1
EndSplineSet
Refer: 56 46 N 1 0 0 1 145 0 2
EndChar

StartChar: at
Encoding: 64 64 85
Width: 1050
VWidth: 0
Flags: HMW
LayerCount: 2
Fore
SplineSet
720 260 m 0
 720 389 632 470 525 470 c 0
 418 470 335 389 335 260 c 0
 335 131 418 50 525 50 c 0
 632 50 720 131 720 260 c 0
755 260 m 0
 755 101 674 -10 515 -10 c 0
 386 -10 270 101 270 260 c 0
 270 419 386 530 515 530 c 0
 674 530 755 419 755 260 c 0
780 520 m 1
 780 120 l 1
 720 100 l 1
 720 520 l 1
 780 520 l 1
55 260 m 0
 55 519 246 730 525 730 c 0
 784 730 995 559 995 300 c 0
 995 63.638671875 883.768554688 -10.2880859375 807.8671875 -10.2880859375 c 4
 743.793945312 -10.2880859375 720 43.19921875 720 100 c 1
 780 120 l 1
 780 60.53515625 790.893554688 32.859375 827.37890625 32.859375 c 4
 888.646484375 32.859375 964 115.765625 964 300 c 0
 964 543 768 701 525 701 c 0
 262 701 86 503 86 260 c 0
 86 17 282 -181 525 -181 c 1
 525 -210 l 1
 266 -210 55 1 55 260 c 0
EndSplineSet
EndChar

StartChar: bracketleft
Encoding: 91 91 86
Width: 295
VWidth: 0
Flags: HMW
LayerCount: 2
Fore
SplineSet
105 674 m 1
 105 730 l 1
 275 730 l 1
 275 674 l 1
 105 674 l 1
105 -200 m 1
 105 -144 l 5
 275 -144 l 5
 275 -200 l 1
 105 -200 l 1
45 730 m 1
 105 730 l 1
 105 -200 l 1
 45 -200 l 1
 45 730 l 1
EndSplineSet
EndChar

StartChar: asciicircum
Encoding: 94 94 88
Width: 510
VWidth: 0
Flags: HMW
LayerCount: 2
Fore
SplineSet
440 430 m 5
 230 730 l 1
 280 730 l 1
 490 430 l 1
 440 430 l 5
230 730 m 1
 280 730 l 1
 70 430 l 1
 20 430 l 1
 230 730 l 1
EndSplineSet
EndChar

StartChar: underscore
Encoding: 95 95 89
Width: 600
VWidth: 0
Flags: HMW
LayerCount: 2
Fore
SplineSet
-2 -90 m 5
 602 -90 l 5
 602 -150 l 1
 -2 -150 l 1
 -2 -90 l 5
EndSplineSet
EndChar

StartChar: braceleft
Encoding: 123 123 90
Width: 349
VWidth: 0
Flags: HMW
LayerCount: 2
Fore
SplineSet
45 295 m 1
 63 295 l 1
 63 235 l 1
 45 235 l 1
 45 295 l 1
147 150 m 1
 207 150 l 1
 207 -50 l 1
 147 -50 l 1
 147 150 l 1
147 580 m 1
 207 580 l 1
 207 380 l 1
 147 380 l 1
 147 580 l 1
147 380 m 1
 207 380 l 1
 207 301 170 250 51 250 c 1
 45 295 l 1
 133 295 147 340 147 380 c 1
147 150 m 1
 147 190 123 235 45 235 c 1
 51 280 l 1
 170 280 207 229 207 150 c 1
 147 150 l 1
207 580 m 5
 147 580 l 1
 147 659 204 730 323 730 c 1
 329 675 l 1
 251 675 207 640 207 580 c 5
207 -50 m 5
 207 -110 251 -145 329 -145 c 5
 323 -200 l 1
 204 -200 147 -129 147 -50 c 1
 207 -50 l 5
EndSplineSet
EndChar

StartChar: bar
Encoding: 124 124 92
Width: 300
VWidth: 0
Flags: HMW
LayerCount: 2
Fore
SplineSet
185 780 m 5
 185 -80 l 5
 115 -80 l 5
 115 780 l 5
 185 780 l 5
EndSplineSet
EndChar

StartChar: asciitilde
Encoding: 126 126 93
Width: 470
VWidth: 0
Flags: HMW
LayerCount: 2
Fore
SplineSet
115 174 m 5
 45 194 l 5
 49.5654296875 272.260742188 96.859375 310.638671875 148.23046875 310.638671875 c 4
 211.844726562 310.638671875 267.365234375 246.962890625 311.607421875 246.962890625 c 4
 356.108398438 246.962890625 365 276.58984375 365 314 c 5
 425 294 l 5
 420.434570312 205.739257812 373.989257812 177.361328125 323.821289062 177.361328125 c 4
 262.262695312 177.361328125 209.831054688 241.037109375 167.247070312 241.037109375 c 4
 123.446289062 241.037109375 115 211.41015625 115 174 c 5
EndSplineSet
EndChar

StartChar: tilde
Encoding: 732 732 98
Width: 500
VWidth: 0
Flags: HMW
AnchorPoint: "dot" 250 610 basechar 0
LayerCount: 2
Fore
SplineSet
120 600 m 1
 60 620 l 1
 64.5654296875 698.260742188 111.859375 736.638671875 163.23046875 736.638671875 c 0
 226.844726562 736.638671875 292.365234375 662.962890625 336.607421875 662.962890625 c 4
 381.108398438 662.962890625 390 702.58984375 390 740 c 1
 440 720 l 1
 435.434570312 631.739257812 388.989257812 603.361328125 338.821289062 603.361328125 c 0
 277.262695312 603.361328125 214.831054688 677.037109375 172.247070312 677.037109375 c 0
 128.446289062 677.037109375 120 637.41015625 120 600 c 1
EndSplineSet
EndChar

StartChar: dotaccent
Encoding: 729 729 99
Width: 500
VWidth: 0
Flags: HMW
AnchorPoint: "dot" 250 590 basechar 0
LayerCount: 2
Fore
SplineSet
196 635 m 0
 196 665 220 690 250 690 c 0
 280 690 304 665 304 635 c 0
 304 605 280 580 250 580 c 0
 220 580 196 605 196 635 c 0
EndSplineSet
EndChar

StartChar: ring
Encoding: 730 730 100
Width: 500
VWidth: 0
Flags: HMW
AnchorPoint: "ring" 250 590 basechar 0
LayerCount: 2
Fore
SplineSet
200 680 m 0
 200 651 221 630 250 630 c 0
 279 630 300 651 300 680 c 0
 300 709 279 730 250 730 c 4
 221 730 200 709 200 680 c 0
150 680 m 0
 150 735 195 780 250 780 c 0
 305 780 350 735 350 680 c 0
 350 625 305 580 250 580 c 0
 195 580 150 625 150 680 c 0
EndSplineSet
EndChar

StartChar: breve
Encoding: 728 728 101
Width: 500
VWidth: 0
Flags: HMW
AnchorPoint: "dot" 244 579 basechar 0
LayerCount: 2
Fore
SplineSet
244 649 m 1
 184 649 139 683 139 731 c 1
 74 725 l 1
 74 636 145 579 244 579 c 1
 244 649 l 1
244 649 m 1
 244 579 l 1
 343 579 414 636 414 725 c 1
 349 731 l 5
 349 683 304 649 244 649 c 1
EndSplineSet
EndChar

StartChar: circumflex
Encoding: 710 710 102
Width: 500
VWidth: 0
Flags: HMW
AnchorPoint: "dot" 250 630 basechar 0
LayerCount: 2
Fore
SplineSet
315 630 m 1
 215 730 l 1
 285 730 l 1
 385 630 l 1
 315 630 l 1
215 730 m 1
 285 730 l 1
 185 630 l 1
 115 630 l 1
 215 730 l 1
EndSplineSet
EndChar

StartChar: caron
Encoding: 711 711 103
Width: 500
VWidth: 0
Flags: HMW
AnchorPoint: "dot" 250 630 basechar 0
LayerCount: 2
Fore
SplineSet
185 730 m 1
 285 630 l 1
 215 630 l 1
 115 730 l 1
 185 730 l 1
285 630 m 1
 215 630 l 1
 315 730 l 1
 385 730 l 1
 285 630 l 1
EndSplineSet
EndChar

StartChar: cent
Encoding: 162 162 105
Width: 600
VWidth: 0
Flags: HMW
LayerCount: 2
Fore
SplineSet
315 600 m 1
 355 600 l 1
 355 -80 l 1
 315 -80 l 1
 315 600 l 1
EndSplineSet
Refer: 30 99 N 1 0 0 1 10 0 2
EndChar

StartChar: sterling
Encoding: 163 163 108
Width: 600
VWidth: 0
Flags: HMW
LayerCount: 2
Fore
SplineSet
145 35 m 1
 77 -1 l 1
 247 272.541992188 115 278.921875 115 530 c 1
 175 530 l 1
 175 346.112304688 295 209.735351562 145 35 c 1
145 -25 m 1
 77 -1 l 1
 151.565429688 77.2607421875 186.859375 91.638671875 258.23046875 91.638671875 c 0
 321.844726562 91.638671875 362.365234375 27.962890625 406.607421875 27.962890625 c 4
 461.108398438 27.962890625 486 54.58984375 506 92 c 5
 555 70 l 1
 530.434570312 -18.2607421875 463.989257812 -31.638671875 413.821289062 -31.638671875 c 0
 332.262695312 -31.638671875 274.831054688 42.037109375 232.247070312 42.037109375 c 0
 188.446289062 42.037109375 165 12.41015625 145 -25 c 1
45 375 m 1
 343 375 l 1
 343 315 l 1
 45 315 l 1
 45 375 l 1
305 645 m 1
 299 710 l 1
 381 710 450 669 487 610 c 1
 455 561 l 1
 428 600 379 645 305 645 c 1
175 530 m 1
 115 530 l 1
 115 629 190 710 299 710 c 1
 305 645 l 1
 220 645 175 589 175 530 c 1
EndSplineSet
EndChar

StartChar: currency
Encoding: 164 164 109
Width: 600
VWidth: 0
Flags: HMW
LayerCount: 2
Fore
SplineSet
135 316 m 0
 135 225 209 151 300 151 c 0
 391 151 465 225 465 316 c 0
 465 407 391 481 300 481 c 0
 209 481 135 407 135 316 c 0
138 194 m 1
 179 153 l 1
 83 57 l 1
 42 98 l 1
 138 194 l 1
416 158 m 1
 457 199 l 1
 558 98 l 1
 517 57 l 1
 416 158 l 1
517 573 m 1
 558 532 l 1
 445 419 l 1
 404 460 l 1
 517 573 l 1
42 532 m 1
 83 573 l 5
 196 460 l 5
 155 419 l 1
 42 532 l 1
84 315 m 0
 84 434 181 531 300 531 c 0
 419 531 516 434 516 315 c 0
 516 196 419 99 300 99 c 0
 181 99 84 196 84 315 c 0
EndSplineSet
EndChar

StartChar: brokenbar
Encoding: 166 166 111
Width: 300
VWidth: 0
Flags: HMW
LayerCount: 2
Fore
SplineSet
185 460 m 5
 115 460 l 5
 115 780 l 1
 185 780 l 1
 185 460 l 5
185 280 m 1
 185 -80 l 1
 115 -80 l 1
 115 280 l 1
 185 280 l 1
EndSplineSet
EndChar

StartChar: section
Encoding: 167 167 112
Width: 520
VWidth: 0
Flags: HMW
LayerCount: 2
Fore
SplineSet
415 140 m 1
 475 140 l 1
 475 61 414 -10 275 -10 c 0
 166 -10 100 37 45 104 c 1
 88 143 l 1
 134 93 187 55 275 55 c 0
 358 55 415 80 415 140 c 1
270 277 m 0
 387 258 475 260 475 140 c 1
 415 140 l 1
 415 200 364.594726562 207.76171875 256 223 c 0
 152.522460938 237.520507812 10 328 150 473 c 1
 200 473 l 1
 100 343 172.280273438 292.869140625 270 277 c 0
150 573 m 1
 90 573 l 1
 90 649 166 710 275 710 c 0
 384 710 436 670 478 628 c 1
 439 583 l 1
 401 616 363 649 275 649 c 0
 187 649 150 605 150 573 c 1
295 493 m 0
 412 474 551 396 411 246 c 5
 361 246 l 5
 461 376 388.594726562 421.76171875 280 437 c 0
 176.522460938 451.520507812 90 478 90 573 c 1
 150 573 l 1
 150 523 197.280273438 508.869140625 295 493 c 0
EndSplineSet
EndChar

StartChar: copyright
Encoding: 169 169 114
Width: 850
VWidth: 0
Flags: HMW
LayerCount: 2
Fore
SplineSet
113 350 m 0
 113 174 254 30 425 30 c 0
 596 30 737 174 737 350 c 0
 737 526 596 670 425 670 c 0
 254 670 113 526 113 350 c 0
70 350 m 0
 70 549 230 710 425 710 c 0
 620 710 780 549 780 350 c 0
 780 151 620 -10 425 -10 c 0
 230 -10 70 151 70 350 c 0
EndSplineSet
Refer: 8 67 N 0.5 0 0 0.5 220.5 175 2
EndChar

StartChar: registered
Encoding: 174 174 116
Width: 850
VWidth: 0
Flags: HMW
LayerCount: 2
Fore
SplineSet
113 350 m 0
 113 174 254 30 425 30 c 0
 596 30 737 174 737 350 c 0
 737 526 596 670 425 670 c 0
 254 670 113 526 113 350 c 0
70 350 m 0
 70 549 230 710 425 710 c 0
 620 710 780 549 780 350 c 0
 780 151 620 -10 425 -10 c 0
 230 -10 70 151 70 350 c 0
EndSplineSet
Refer: 17 82 S 0.5 0 0 0.5 252 175 2
EndChar

StartChar: degree
Encoding: 176 176 119
Width: 400
VWidth: 0
Flags: HMW
LayerCount: 2
Fore
SplineSet
130 680 m 0
 130 641 161 610 200 610 c 0
 239 610 270 641 270 680 c 0
 270 719 239 750 200 750 c 0
 161 750 130 719 130 680 c 0
100 680 m 0
 100 735 145 780 200 780 c 0
 255 780 300 735 300 680 c 0
 300 625 255 580 200 580 c 0
 145 580 100 625 100 680 c 0
EndSplineSet
EndChar

StartChar: mu
Encoding: 181 181 120
Width: 635
VWidth: 0
Flags: HMW
LayerCount: 2
Fore
SplineSet
80 220 m 1
 160 220 l 1
 160 -198 l 1
 80 -198 l 1
 80 220 l 1
EndSplineSet
Refer: 40 117 N 1 0 0 1 0 0 2
EndChar

StartChar: grave
Encoding: 96 96 123
Width: 320
VWidth: 0
Flags: HMW
AnchorPoint: "dot" 200 590 basechar 0
LayerCount: 2
Fore
SplineSet
190 590 m 1
 70 730 l 1
 160 730 l 5
 240 590 l 5
 190 590 l 1
EndSplineSet
EndChar

StartChar: acute
Encoding: 180 180 124
Width: 320
VWidth: 0
Flags: HMW
AnchorPoint: "dot" 120 590 basechar 0
LayerCount: 2
Fore
SplineSet
130 590 m 1
 80 590 l 5
 160 730 l 5
 250 730 l 1
 130 590 l 1
EndSplineSet
EndChar

StartChar: logicalnot
Encoding: 172 172 126
Width: 540
VWidth: 0
Flags: HMW
LayerCount: 2
Fore
SplineSet
405 425 m 5
 475 425 l 5
 475 275 l 1
 405 275 l 1
 405 425 l 5
EndSplineSet
Refer: 78 45 N 1.13333 0 0 1 -8.66667 100 2
EndChar

StartChar: macron
Encoding: 175 175 127
Width: 300
VWidth: 0
Flags: HMW
LayerCount: 2
Fore
SplineSet
-2 790 m 5
 302 790 l 5
 302 730 l 1
 -2 730 l 1
 -2 790 l 5
EndSplineSet
EndChar

StartChar: paragraph
Encoding: 182 182 130
Width: 600
VWidth: 0
Flags: HMW
LayerCount: 2
Fore
SplineSet
465 700 m 5
 465 656 l 5
 353 656 l 1
 353 700 l 1
 465 700 l 5
525 700 m 1
 525 0 l 1
 465 0 l 5
 465 700 l 5
 525 700 l 1
355 700 m 1
 355 0 l 1
 295 0 l 1
 295 700 l 1
 355 700 l 1
295 260 m 1
 196 260 75 351 75 480 c 0
 75 609 196 700 295 700 c 1
 295 520 295 440 295 260 c 1
EndSplineSet
EndChar

StartChar: cedilla
Encoding: 184 184 131
Width: 320
VWidth: 0
Flags: HMW
AnchorPoint: "ced" 146 -1 basechar 0
LayerCount: 2
Fore
SplineSet
84 30 m 5
 124 30 l 5
 174 -4 239 -44 239 -102 c 4
 239 -149 217 -184 150 -184 c 4
 113 -184 75 -170 54 -155 c 5
 74 -125 l 5
 83 -128 103 -140 133 -140 c 4
 164 -140 188 -131 188 -99 c 4
 188 -64 131 -9 84 30 c 5
EndSplineSet
EndChar

StartChar: dotlessi
Encoding: 305 305 225
Width: 250
VWidth: 0
Flags: HMW
AnchorPoint: "ced" 125 0 basechar 0
LayerCount: 2
Fore
SplineSet
85 520 m 1
 165 520 l 1
 165 0 l 1
 85 0 l 1
 85 520 l 1
EndSplineSet
EndChar

StartChar: uni0237
Encoding: 567 567 349
Width: 250
VWidth: 0
Flags: W
HStem: -210 75<-47.9045 68.9875> 500 20G<89 169>
VStem: 89 80<-116.766 520>
LayerCount: 2
Fore
SplineSet
89 520 m 1
 169 520 l 1
 169 -60 l 1
 89 -60 l 1
 89 520 l 1
28 -135 m 1
 34 -210 l 1
 -23 -210 -73 -194 -100 -160 c 1
 -62 -101 l 1
 -45 -120 -15 -135 28 -135 c 1
89 -60 m 1
 169 -60 l 1
 169 -139 123 -210 34 -210 c 1
 28 -135 l 1
 65 -135 89 -100 89 -60 c 1
EndSplineSet
EndChar

StartChar: kgreenlandic
Encoding: 312 312 573
Width: 570
VWidth: 0
Flags: HW
AnchorPoint: "dot" 325 673 basechar 0
AnchorPoint: "ced" 495 0 basechar 0
LayerCount: 2
Fore
SplineSet
245 291 m 1
 325 305 l 1
 545 0 l 1
 455 0 l 1
 245 291 l 1
430 520 m 1
 525 520 l 1
 165 110 l 1
 110 154 l 1
 430 520 l 1
85 520 m 5
 165 520 l 5
 165 0 l 1
 85 0 l 1
 85 520 l 5
EndSplineSet
EndChar

StartChar: ogonek
Encoding: 731 731 574
Width: 320
VWidth: 0
Flags: HW
AnchorPoint: "ced" 149 0 basechar 0
LayerCount: 2
Fore
SplineSet
209 30 m 1
 162 -9 105 -64 105 -99 c 0
 105 -131 129 -140 160 -140 c 0
 190 -140 210 -128 219 -125 c 1
 239 -155 l 1
 218 -170 180 -184 143 -184 c 0
 76 -184 54 -149 54 -102 c 0
 54 -44 119 -4 169 30 c 1
 209 30 l 1
EndSplineSet
EndChar

StartChar: AE
Encoding: 198 198 582
Width: 1090
VWidth: 0
Flags: HW
LayerCount: 2
Fore
SplineSet
440 700 m 1
 565 700 l 1
 560 630 l 5
 440 630 l 5
 440 700 l 1
204 260 m 1
 596 260 l 1
 596 195 l 1
 204 195 l 1
 204 260 l 1
440 700 m 1
 505 690 l 1
 115 0 l 1
 40 0 l 1
 440 700 l 1
EndSplineSet
Refer: 0 69 N 1 0 0 1 430 0 2
EndChar

StartChar: fi
Encoding: 64257 64257 585
Width: 375
VWidth: 0
Flags: HW
AnchorPoint: "ced" 158 0 basechar 0
LayerCount: 2
Fore
SplineSet
45 520 m 1
 348 520 l 1
 348 460 l 1
 45 460 l 1
 45 520 l 1
190 590 m 1
 190 0 l 1
 125 0 l 1
 125 590 l 1
 190 590 l 1
190 590 m 5
 125 590 l 1
 125 669 175 740 264 740 c 1
 270 680 l 1
 205 680 190 636 190 590 c 5
270 680 m 1
 264 740 l 1
 302.70703125 740 334.788085938 731.815429688 360 708.608398438 c 1
 360 641 l 1
 343 655 314 680 270 680 c 1
EndSplineSet
EndChar
